<?xml version="1.0" encoding="UTF-8"?>
<svg version="1.1" xmlns="http://www.w3.org/2000/svg" width="256" height="256">
<path d="M0 0 C84.48 0 168.96 0 256 0 C256 84.48 256 168.96 256 256 C171.52 256 87.04 256 0 256 C0 171.52 0 87.04 0 0 Z " fill="#FEFEFE" transform="translate(0,0)"/>
<path d="M0 0 C2.99008705 1.99982166 5.44042496 4.48517277 8 7 C8.90234375 7.80695313 9.8046875 8.61390625 10.734375 9.4453125 C11.64703125 10.28835937 12.5596875 11.13140625 13.5 12 C14.3559375 12.78375 15.211875 13.5675 16.09375 14.375 C18 17 18 17 18.71875 20.3125 C17.11649397 28.53277004 8.11085462 35.03358967 2.3425293 40.78686523 C1.50591263 41.62523422 0.66929596 42.46360321 -0.19267273 43.32737732 C-2.93454699 46.07362218 -5.68002596 48.81622964 -8.42578125 51.55859375 C-10.33949838 53.47253394 -12.25261658 55.3870725 -14.16581726 57.30152893 C-18.16254295 61.30006641 -22.16135617 65.29650707 -26.16137695 69.29174805 C-30.78664188 73.91154987 -35.40826331 78.5349732 -40.02805263 83.16025013 C-44.00342362 87.14015388 -47.98073329 91.11811234 -51.95968121 95.09444004 C-54.33270735 97.46590717 -56.70505248 99.83804494 -59.07564735 102.21194267 C-61.71119302 104.8500152 -64.34990084 107.48488261 -66.98950195 110.11889648 C-67.7754776 110.90689636 -68.56145325 111.69489624 -69.37124634 112.5067749 C-70.0874968 113.22020554 -70.80374725 113.93363617 -71.54170227 114.66868591 C-72.16496053 115.29156714 -72.78821878 115.91444838 -73.43036366 116.5562048 C-75.80688733 118.74219743 -76.99320033 118.99926879 -80.28372192 119.3531189 C-84.94810253 118.90991177 -86.20386229 117.65265766 -89.46044922 114.35009766 C-89.95729721 113.85587814 -90.4541452 113.36165863 -90.96604919 112.85246277 C-92.59620592 111.22252685 -94.20009904 109.56914292 -95.8046875 107.9140625 C-96.93425592 106.7739689 -98.06531159 105.63534707 -99.19778442 104.49813843 C-102.16912294 101.50578536 -105.11842486 98.49257615 -108.06402588 95.47491455 C-110.47635661 93.01071273 -112.90360092 90.56150699 -115.33183098 88.11298561 C-120.34217754 83.06036642 -125.34295399 77.99812355 -130.31591797 72.90869141 C-131.19859344 72.00712311 -132.08126892 71.10555481 -132.99069214 70.17666626 C-135.23072929 67.7500529 -135.88592816 66.59887715 -136.5 63.375 C-135.73356327 58.20155209 -132.59692091 55.62308034 -129 52 C-128.20851563 51.18273437 -127.41703125 50.36546875 -126.6015625 49.5234375 C-119.50209147 42.28611266 -119.50209147 42.28611266 -115.375 41.5 C-106.31751427 42.84184974 -98.33839186 54.54686323 -92 60.9375 C-90.92862113 62.01390654 -89.85700818 63.09008014 -88.78515625 64.16601562 C-86.18740362 66.77466745 -83.59282038 69.38644471 -81 72 C-78.18348125 70.71695827 -76.13611359 69.38375476 -73.95762634 67.19140625 C-73.38430069 66.61938477 -72.81097504 66.04736328 -72.22027588 65.45800781 C-71.6035199 64.83249023 -70.98676392 64.20697266 -70.35131836 63.5625 C-69.36280632 62.5720166 -69.36280632 62.5720166 -68.35432434 61.56152344 C-66.17819797 59.37890872 -64.00913086 57.18941048 -61.83984375 55 C-60.32868002 53.48256561 -58.81699981 51.9656454 -57.30482483 50.44921875 C-53.32495457 46.45604359 -49.35068749 42.4573418 -45.37799072 38.45703125 C-39.0166407 32.05256692 -32.64857559 25.65479689 -26.2772541 19.26025391 C-24.050762 17.02352591 -21.8277075 14.78342236 -19.60496521 12.54296875 C-18.24318792 11.17436432 -16.88130116 9.8058688 -15.51928711 8.4375 C-14.59111679 7.49922363 -14.59111679 7.49922363 -13.64419556 6.54199219 C-13.07368973 5.9699707 -12.5031839 5.39794922 -11.91539001 4.80859375 C-11.42189528 4.31157959 -10.92840055 3.81456543 -10.41995144 3.30249023 C-6.89218949 0.06655176 -4.68544627 -0.79564182 0 0 Z " fill="#016CE6" transform="translate(201,58)"/>
<path d="M0 0 C1.50425285 -0.00810448 1.50425285 -0.00810448 3.03889465 -0.01637268 C6.32823911 -0.02880109 9.61669826 -0.0124088 12.90600586 0.00561523 C15.20568385 0.00546012 17.50536211 0.00396913 19.80503845 0.00120544 C24.61395895 -0.00017588 29.42258024 0.01233619 34.23144531 0.03515625 C40.38373652 0.06355567 46.53553151 0.06079542 52.68785954 0.04806614 C57.43289908 0.04109932 62.17782467 0.04890952 66.92284966 0.06132317 C69.19096883 0.06582675 71.45910029 0.06618406 73.72722054 0.06225777 C76.90043191 0.05933536 80.0729679 0.07590185 83.24609375 0.09765625 C84.17566895 0.0931546 85.10524414 0.08865295 86.06298828 0.08401489 C91.88319144 0.15004332 96.26498961 1.01987139 101.55834961 3.50170898 C102.99584961 5.75170898 102.99584961 5.75170898 102.55834961 8.50170898 C100.16076596 12.00617285 97.44869262 14.986631 93.27000237 16.1252346 C90.59218576 16.33340577 87.99650873 16.32293243 85.31201172 16.23291016 C84.30625595 16.22750717 83.30050018 16.22210419 82.26426697 16.21653748 C78.95353686 16.19135386 75.64568816 16.11745704 72.33569336 16.04467773 C70.02839989 16.0214474 67.72106649 16.00191482 65.41371155 15.98591614 C59.34750609 15.93658952 53.2825482 15.84871408 47.21697998 15.74920654 C37.50566693 15.59262641 27.79417284 15.47799798 18.08197212 15.39476967 C14.69243353 15.35766206 11.30410793 15.2940094 7.9150238 15.22807312 C5.83512481 15.20395265 3.75521459 15.18077484 1.67529297 15.15869141 C0.73538513 15.13331299 -0.20452271 15.10793457 -1.1729126 15.08178711 C-6.79454984 15.05206015 -9.99789592 15.7117201 -14.44165039 19.50170898 C-17.7404926 23.24634068 -19.55805101 25.58111505 -19.59555054 30.56069946 C-19.60845123 31.83484711 -19.60845123 31.83484711 -19.62161255 33.13473511 C-19.6258725 34.06875153 -19.63013245 35.00276794 -19.63452148 35.96508789 C-19.64269897 36.9473938 -19.65087646 37.92969971 -19.65930176 38.94177246 C-19.68418337 42.20393256 -19.70068114 45.46604898 -19.71508789 48.72827148 C-19.72041157 49.84177349 -19.72573524 50.9552755 -19.73122025 52.10251999 C-19.75796706 57.99908511 -19.77733488 63.89562896 -19.79174805 69.79223633 C-19.80837658 75.87868596 -19.85313554 81.9645921 -19.90411949 88.05083656 C-19.93780858 92.7332317 -19.94932752 97.41549829 -19.95497513 102.09800339 C-19.96168566 104.34104936 -19.97690245 106.58408693 -20.00086594 108.82701492 C-20.03254731 111.97244454 -20.03254897 115.11641505 -20.02514648 118.26196289 C-20.04155182 119.18383392 -20.05795715 120.10570496 -20.07485962 121.05551147 C-20.01493174 127.29686173 -18.78990967 131.86535507 -14.44165039 136.50170898 C-8.92135669 139.92590029 -3.67710613 139.93660683 2.62109375 139.90576172 C3.60734238 139.91262497 4.593591 139.91948822 5.60972595 139.92655945 C8.85446761 139.94479099 12.09872421 139.94099585 15.34350586 139.93530273 C17.60599423 139.93986549 19.86848121 139.94517134 22.13096619 139.95118713 C26.86601402 139.96011049 31.6008931 139.9577029 36.3359375 139.94775391 C42.40111107 139.93625122 48.46570357 139.95650007 54.53080082 139.98567104 C59.20026847 140.00402069 63.86959645 140.00374325 68.53909111 139.99803352 C70.77538304 139.99788023 73.01168439 140.00393082 75.24794197 140.016325 C78.37399895 140.03121352 81.49897665 140.0205738 84.625 140.00341797 C85.54620636 140.01308594 86.46741272 140.02275391 87.41653442 140.03271484 C92.95299854 139.96913719 96.20001885 139.24801401 100.55834961 135.50170898 C104.507228 131.03789675 105.07542412 126.29749965 104.85131836 120.47827148 C104.84144265 118.94702994 104.83302439 117.41577843 104.82592773 115.88452148 C104.79284071 113.50519657 104.74589522 111.12817452 104.671875 108.74975586 C104.26051521 93.76073648 104.26051521 93.76073648 109.85913086 87.83764648 C112.22753906 85.75317383 112.22753906 85.75317383 114.55834961 84.50170898 C116.76953418 84.72865845 117.97872299 84.92208236 119.55834961 86.50170898 C119.67174758 87.83478472 119.71784586 89.17369901 119.73535156 90.51147461 C119.75460442 91.7891571 119.75460442 91.7891571 119.77424622 93.09265137 C119.78163315 94.02170288 119.78902008 94.95075439 119.79663086 95.90795898 C119.80470261 96.86182495 119.81277435 97.81569092 119.8210907 98.79846191 C119.83495647 100.82615327 119.84566741 102.85386822 119.85351562 104.8815918 C119.87062432 107.96115699 119.91447501 111.03961947 119.95874023 114.11889648 C119.96887608 116.09024276 119.97738938 118.06159818 119.98413086 120.03295898 C120.00163895 120.94581665 120.01914703 121.85867432 120.03718567 122.79919434 C120.01580196 129.20944813 118.56983547 133.86765075 115.55834961 139.50170898 C115.02209961 140.53295898 114.48584961 141.56420898 113.93334961 142.62670898 C109.49256686 148.00239337 103.25187641 152.43000159 96.55834961 154.50170898 C93.11839245 154.81051225 89.68744358 154.805755 86.23535156 154.80810547 C84.67827232 154.82059074 84.67827232 154.82059074 83.08973694 154.83332825 C79.65866336 154.85741851 76.22778004 154.86620018 72.79663086 154.87280273 C70.40634607 154.88177122 68.01606185 154.89089311 65.6257782 154.90016174 C60.61313514 154.91665266 55.60055887 154.92435181 50.58789062 154.92724609 C44.17997586 154.93262365 37.77269334 154.97027835 31.36495686 155.01599026 C26.42597695 155.04580805 21.48714824 155.05297072 16.54808617 155.05397224 C14.18668923 155.05816669 11.82529152 155.07056957 9.46398354 155.09148979 C6.15163046 155.11849483 2.84072908 155.11355006 -0.47167969 155.10107422 C-1.43775146 155.11590851 -2.40382324 155.1307428 -3.39916992 155.14602661 C-11.48690183 155.05974881 -17.60442189 152.40571424 -24.02758789 147.54467773 C-30.31497424 141.02391679 -34.51806515 134.36914883 -34.60227966 125.11523438 C-34.61232529 124.24359146 -34.62237091 123.37194855 -34.63272095 122.47389221 C-34.63855194 121.52529831 -34.64438293 120.57670441 -34.65039062 119.59936523 C-34.66017441 118.59393173 -34.66995819 117.58849823 -34.68003845 116.55259705 C-34.70996395 113.22314774 -34.73137425 109.89373867 -34.75024414 106.56420898 C-34.75681597 105.42443604 -34.76338779 104.28466309 -34.77015877 103.11035156 C-34.80274543 97.07301067 -34.8271939 91.03568733 -34.84667969 84.99829102 C-34.86446369 80.01462939 -34.89923956 75.03153665 -34.94921875 70.0480957 C-35.00959993 64.01984871 -35.0401807 57.99212752 -35.04985237 51.96359253 C-35.05838014 49.67359296 -35.07713143 47.38360641 -35.10659599 45.09378052 C-35.41056493 20.11909093 -35.41056493 20.11909093 -26.21165466 10.06420898 C-18.58728827 2.51308129 -10.55130128 -0.10997741 0 0 Z " fill="#036DE7" transform="translate(71.441650390625,50.498291015625)"/>
<path d="M0 0 C0 3 0 3 -1.75 5.04296875 C-2.4925 5.75066406 -3.235 6.45835938 -4 7.1875 C-4.7425 7.90292969 -5.485 8.61835937 -6.25 9.35546875 C-7.11625 10.16951172 -7.11625 10.16951172 -8 11 C-8.66 10.67 -9.32 10.34 -10 10 C-8.7121669 8.51749445 -7.41960936 7.03909182 -6.125 5.5625 C-5.40570313 4.73878906 -4.68640625 3.91507813 -3.9453125 3.06640625 C-2 1 -2 1 0 0 Z " fill="#0F73EA" transform="translate(51,56)"/>
<path d="M0 0 C0.99 0.33 1.98 0.66 3 1 C2.34 1 1.68 1 1 1 C0.79375 1.556875 0.5875 2.11375 0.375 2.6875 C-1.55000774 5.92501302 -4.03850902 7.68231141 -7 10 C-7 7 -7 7 -5.46875 5.17578125 C-4.8190625 4.56089844 -4.169375 3.94601563 -3.5 3.3125 C-2.8503125 2.68988281 -2.200625 2.06726563 -1.53125 1.42578125 C-0.77328125 0.72001953 -0.77328125 0.72001953 0 0 Z " fill="#247EEC" transform="translate(186,135)"/>
</svg>
